<svg version="1.1" id="neptun_logo_svg" xmlns="http://www.w3.org/2000/svg" xmlns:xlink="http://www.w3.org/1999/xlink" viewBox="270 250 330 90" style="enable-background:new 270 250 330 90;" xml:space="preserve">
    <g style="width:100px">
        <g style="fill:#ff8300">
            <path class="st0" d="M 404.3 270.1 c -4 0 -7.8 1.1 -11.1 2.8 c -1.2 -1.3 -2.9 -2.1 -5 -2.1 c -3.6 0 -6.6 3 -6.6 6.6 v 44.8 c 0 3.6 2.9 6.5 6.5 6.7 h 0.6 c 3.9 0 7 -3.2 7 -7 v -8.2 c 2.7 1.1 5.6 1.7 8.6 1.7 c 12.5 0 22.7 -10.2 22.7 -22.7 C 427 280.3 416.8 270.1 404.3 270.1 Z M 404.3 301.3 c -4.8 0 -8.6 -3.8 -8.6 -8.6 c 0 -4.8 3.8 -8.6 8.6 -8.6 c 4.8 0 8.6 3.8 8.6 8.6 C 412.9 297.5 409.1 301.3 404.3 301.3 Z"></path>
            <path class="st0" d="M 352.1 270.4 c -10 0 -17.7 6.3 -20.8 13.8 c -2.4 5.8 -2.5 12.7 0.3 18.4 c 3.5 7.3 11.5 13.1 21.7 13.1 c 4.5 0 8.8 -1.2 12.7 -3.4 c 2.8 -1.7 3.8 -5.4 2.1 -8.3 c -1.7 -2.8 -5.4 -3.9 -8.2 -2.1 c -5.7 3.1 -13 2.2 -16.9 -3.7 h 23.5 c 5 0 8.6 -2.7 8.1 -8 C 373.1 278.9 363.5 270.4 352.1 270.4 Z M 343 288.1 c 0.8 -3.4 4.6 -6.5 9 -6.5 c 4.5 0 8.2 3.2 9 6.5 H 343 Z" ></path>
            <path class="st0" d="M 455.3 283.1 c 3.5 0 6.2 -2.7 6.2 -6.1 c 0 -3.5 -2.7 -6.2 -6.2 -6.2 h -6.5 v -7 c 0 -3.9 -3.2 -7.1 -7.1 -7.1 s -7.1 3.2 -7.1 7.1 v 32.7 c 0 10.3 7.4 18.5 17.9 18.5 h 1.3 c 3.9 0 7.1 -3.2 7.1 -7.1 s -3.2 -7.1 -7.1 -7.1 h -1.3 c -2.6 0 -3.7 -2.1 -3.7 -4.3 v -13.5 H 455.3 Z" ></path>
            <path class="st0" d="M 501.2 270.8 c -3.9 0 -7 3.2 -7 7 v 18.4 c 0 3 -2.5 5.5 -5.5 5.5 c -3 0 -5.5 -2.5 -5.5 -5.5 v -18.4 c 0 -3.8 -3.1 -7 -7 -7 c -4 0 -7.1 3.2 -7.1 7 v 18.4 c 0 10.8 8.8 19.6 19.6 19.6 c 10.8 0 19.6 -8.8 19.6 -19.6 v -18.4 C 508.2 274 505.1 270.8 501.2 270.8 Z" ></path>
            <path class="st0" d="M 536.7 270.8 c -10.8 0 -19.6 8.8 -19.6 19.6 v 18.4 c 0 3.8 3.1 7 7.1 7 c 3.9 0 7 -3.2 7 -7 v -18.4 c 0 -3 2.5 -5.5 5.5 -5.5 c 3 0 5.5 2.5 5.5 5.5 v 18.4 c 0 3.8 3.1 7 7 7 c 4 0 7.1 -3.2 7.1 -7 v -18.4 C 556.3 279.5 547.5 270.8 536.7 270.8 Z" ></path>
            <path class="st0" d="M 303.4 270.8 c -4.4 0 -8.5 1.5 -11.8 4 c -3 -2.6 -6.9 -4.1 -11.4 -4.1 h -1.3 c -3.8 0 -7 3.1 -7 7 c 0 3.8 3.1 7 7 7 h 1.3 c 2.5 0 3.7 2.1 3.7 4.3 v 1.1 c 0 0.1 0 0.3 0 0.4 v 18.4 c 0 3.8 3.1 7 7.1 7 c 3.9 0 7 -3.2 7 -7 v -18.4 c 0 -3 2.5 -5.5 5.5 -5.5 c 3 0 5.5 2.5 5.5 5.5 v 18.4 c 0 3.8 3.1 7 7 7 c 4 0 7.1 -3.2 7.1 -7 v -18.4 C 323 279.5 314.2 270.8 303.4 270.8 Z" ></path>
            <circle class="st0" cx="290.9" cy="328.9" r="7"></circle>
            <circle class="st0" cx="315.9" cy="328.9" r="7"></circle>
        </g>
    </g>
</svg>