<svg version="1.1" id="neptun_logo_svg" xmlns="http://www.w3.org/2000/svg" xmlns:xlink="http://www.w3.org/1999/xlink" x="0px" y="0px" viewBox="270 250 330 90" style="enable-background:new 270 250 330 90;" xml:space="preserve">
    <style type="text/css">
.st0{fill:#FF8300;}
#neptun_logo_svg {
margin-top: -6%;
}
@media (max-width:480px){
#neptun_logo_svg{
margin-top: -2%;
}
}
</style>
    <g>
        <g>
            <g>
                <g>
                    <g>
                        <path class="st0" d="M352.1,270.4c-10,0-17.7,6.3-20.8,13.8c-2.4,5.8-2.5,12.7,0.3,18.4c3.5,7.3,11.5,13.1,21.7,13.1
c4.5,0,8.8-1.2,12.7-3.4c2.8-1.7,3.8-5.4,2.1-8.3c-1.7-2.8-5.4-3.9-8.2-2.1c-5.7,3.1-13,2.2-16.9-3.7h23.5c5,0,8.6-2.7,8.1-8
C373.1,278.9,363.5,270.4,352.1,270.4z M343,288.1c0.8-3.4,4.6-6.5,9-6.5c4.5,0,8.2,3.2,9,6.5H343z"></path>
                        <path class="st0" d="M404.3,270.1c-4,0-7.8,1.1-11.1,2.8c-1.2-1.3-2.9-2.1-5-2.1c-3.6,0-6.6,3-6.6,6.6v44.8
c0,3.6,2.9,6.5,6.5,6.7h0.6c3.9,0,7-3.2,7-7v-8.2c2.7,1.1,5.6,1.7,8.6,1.7c12.5,0,22.7-10.2,22.7-22.7
C427,280.3,416.8,270.1,404.3,270.1z M404.3,301.3c-4.8,0-8.6-3.8-8.6-8.6c0-4.8,3.8-8.6,8.6-8.6c4.8,0,8.6,3.8,8.6,8.6
C412.9,297.5,409.1,301.3,404.3,301.3z"></path>
                        <path class="st0" d="M455.3,283.1c3.5,0,6.2-2.7,6.2-6.1c0-3.5-2.7-6.2-6.2-6.2h-6.5v-7c0-3.9-3.2-7.1-7.1-7.1
s-7.1,3.2-7.1,7.1v32.7c0,10.3,7.4,18.5,17.9,18.5h1.3c3.9,0,7.1-3.2,7.1-7.1s-3.2-7.1-7.1-7.1h-1.3c-2.6,0-3.7-2.1-3.7-4.3
v-13.5H455.3z"></path>
                        <path class="st0" d="M501.2,270.8c-3.9,0-7,3.2-7,7v18.4c0,3-2.5,5.5-5.5,5.5c-3,0-5.5-2.5-5.5-5.5v-18.4c0-3.8-3.1-7-7-7
c-4,0-7.1,3.2-7.1,7v18.4c0,10.8,8.8,19.6,19.6,19.6c10.8,0,19.6-8.8,19.6-19.6v-18.4C508.2,274,505.1,270.8,501.2,270.8z"></path>
                        <path class="st0" d="M536.7,270.8c-10.8,0-19.6,8.8-19.6,19.6v18.4c0,3.8,3.1,7,7.1,7c3.9,0,7-3.2,7-7v-18.4
c0-3,2.5-5.5,5.5-5.5c3,0,5.5,2.5,5.5,5.5v18.4c0,3.8,3.1,7,7,7c4,0,7.1-3.2,7.1-7v-18.4C556.3,279.5,547.5,270.8,536.7,270.8z
"></path>
                        <path class="st0" d="M303.4,270.8c-4.4,0-8.5,1.5-11.8,4c-3-2.6-6.9-4.1-11.4-4.1h-1.3c-3.8,0-7,3.1-7,7c0,3.8,3.1,7,7,7h1.3
c2.5,0,3.7,2.1,3.7,4.3v1.1c0,0.1,0,0.3,0,0.4v18.4c0,3.8,3.1,7,7.1,7c3.9,0,7-3.2,7-7v-18.4c0-3,2.5-5.5,5.5-5.5
c3,0,5.5,2.5,5.5,5.5v18.4c0,3.8,3.1,7,7,7c4,0,7.1-3.2,7.1-7v-18.4C323,279.5,314.2,270.8,303.4,270.8z"></path>
                        <circle class="st0" cx="290.9" cy="328.9" r="7"></circle>
                        <circle class="st0" cx="315.9" cy="328.9" r="7"></circle>
                    </g>
                </g>
            </g>
        </g>
        <g>
            <g>
                <path class="st0" d="M437.2,330.1c0.9,0,1.7,0.4,2.2,1.1c0.6,0.7,0.8,1.6,0.6,2.5c-0.1,0.7-0.5,1.2-1,1.7
c-0.5,0.4-1.2,0.6-1.9,0.6h0c-0.6,0-1.2-0.2-1.7-0.6c-0.5-0.4-0.8-0.9-1-1.5c-0.1-0.2,0-0.4,0.1-0.6s0.3-0.3,0.5-0.3
c0.3,0,0.5,0.2,0.6,0.5c0.1,0.3,0.3,0.6,0.6,0.8c0.3,0.2,0.6,0.3,1,0.3h0c0.4,0,0.7-0.1,1-0.3c0.3-0.2,0.5-0.5,0.6-0.9
c0.1-0.5,0-1-0.3-1.4c-0.3-0.4-0.7-0.6-1.2-0.6c-0.7,0-1.4-0.3-1.9-0.8c-0.5-0.5-0.8-1.1-0.8-1.9v-0.2c0-0.7,0.3-1.4,0.8-1.9
c0.5-0.5,1.1-0.8,1.9-0.8h0c0.6,0,1.1,0.2,1.5,0.5c0.5,0.3,0.8,0.8,0.9,1.3c0.1,0.2,0,0.4-0.1,0.6c-0.1,0.2-0.3,0.3-0.5,0.3h0
c-0.3,0-0.5-0.1-0.6-0.4c-0.1-0.3-0.2-0.5-0.5-0.7c-0.2-0.2-0.5-0.3-0.8-0.3h0c-0.4,0-0.7,0.1-0.9,0.4c-0.3,0.3-0.4,0.6-0.4,0.9
v0.2c0,0.4,0.1,0.7,0.4,0.9C436.5,330,436.8,330.1,437.2,330.1z"></path>
                <path class="st0" d="M446.7,335c-0.5-0.6-0.8-1.3-0.8-2v-6.4c0-0.2,0.1-0.3,0.2-0.5c0.1-0.1,0.3-0.2,0.5-0.2
c0.2,0,0.3,0.1,0.4,0.2c0.1,0.1,0.2,0.3,0.2,0.5v6.5c0,0.4,0.1,0.8,0.4,1.1c0.3,0.3,0.6,0.5,1,0.6c0.5,0.1,0.9-0.1,1.3-0.4
c0.4-0.3,0.5-0.7,0.5-1.2v-6.5c0-0.2,0.1-0.3,0.2-0.5c0.1-0.1,0.3-0.2,0.5-0.2s0.3,0.1,0.5,0.2c0.1,0.1,0.2,0.3,0.2,0.5v6.5
c0,0.8-0.3,1.5-0.9,2.1c-0.6,0.6-1.3,0.8-2.1,0.8C447.9,335.9,447.2,335.6,446.7,335z"></path>
                <path class="st0" d="M460.5,326c0.7,0,1.3,0.3,1.8,0.8c0.5,0.5,0.8,1.1,0.8,1.8v0c0,0.7-0.3,1.3-0.8,1.8
c-0.5,0.5-1.1,0.8-1.8,0.8H459v4.1c0,0.2-0.1,0.3-0.2,0.5c-0.1,0.1-0.3,0.2-0.4,0.2c-0.2,0-0.3-0.1-0.5-0.2
c-0.1-0.1-0.2-0.3-0.2-0.5v-8.7c0-0.2,0.1-0.3,0.2-0.5c0.1-0.1,0.3-0.2,0.5-0.2H460.5z M461.8,328.6c0-0.4-0.1-0.7-0.4-0.9
c-0.3-0.3-0.6-0.4-0.9-0.4H459v2.7h1.5c0.4,0,0.7-0.1,0.9-0.4C461.7,329.3,461.8,329,461.8,328.6L461.8,328.6z"></path>
                <path class="st0" d="M473.1,334.7c0.2,0,0.3,0.1,0.4,0.2c0.1,0.1,0.2,0.3,0.2,0.5c0,0.2-0.1,0.3-0.2,0.5
c-0.1,0.1-0.3,0.2-0.4,0.2h-3.4c-0.2,0-0.3-0.1-0.5-0.2c-0.1-0.1-0.2-0.3-0.2-0.5v-8.5c0-0.2,0.1-0.3,0.2-0.5
c0.1-0.1,0.3-0.2,0.5-0.2h3.4c0.2,0,0.3,0.1,0.4,0.2c0.1,0.1,0.2,0.3,0.2,0.5c0,0.2-0.1,0.3-0.2,0.5c-0.1,0.1-0.3,0.2-0.4,0.2
h-2.7v2.6h2.3c0.2,0,0.3,0.1,0.5,0.2c0.1,0.1,0.2,0.3,0.2,0.5c0,0.2-0.1,0.3-0.2,0.5c-0.1,0.1-0.3,0.2-0.5,0.2h-2.3v3.3H473.1z"></path>
                <path class="st0" d="M485.1,328.6c0,0.8-0.3,1.4-0.9,1.9c0.6,0.5,0.9,1.2,0.9,1.9v2.8c0,0.2-0.1,0.3-0.2,0.5
c-0.1,0.1-0.3,0.2-0.5,0.2s-0.3-0.1-0.4-0.2c-0.1-0.1-0.2-0.3-0.2-0.5v-2.8c0-0.4-0.1-0.7-0.4-0.9c-0.3-0.3-0.6-0.4-0.9-0.4h-1.5
v4.1c0,0.2-0.1,0.3-0.2,0.5c-0.1,0.1-0.3,0.2-0.5,0.2c-0.2,0-0.3-0.1-0.5-0.2c-0.1-0.1-0.2-0.3-0.2-0.5v-8.7
c0-0.2,0.1-0.3,0.2-0.5c0.1-0.1,0.3-0.2,0.5-0.2h2.1c0.7,0,1.3,0.3,1.8,0.8S485.1,327.9,485.1,328.6L485.1,328.6z M481.1,330h1.5
c0.4,0,0.7-0.1,0.9-0.4c0.3-0.3,0.4-0.6,0.4-0.9v0c0-0.4-0.1-0.7-0.4-0.9c-0.3-0.3-0.6-0.4-0.9-0.4h-1.5V330z"></path>
                <path class="st0" d="M498,325.9c0.2,0,0.3,0.1,0.5,0.2c0.1,0.1,0.2,0.3,0.2,0.5v8.7c0,0.2-0.1,0.3-0.2,0.5
c-0.1,0.1-0.3,0.2-0.5,0.2c-0.2,0-0.3-0.1-0.5-0.2c-0.1-0.1-0.2-0.3-0.2-0.5v-6.1l-1.9,3.7c0,0,0,0.1-0.1,0.1
c-0.1,0.1-0.1,0.1-0.2,0.2c-0.2,0.1-0.3,0.1-0.5,0c-0.2,0-0.3-0.2-0.4-0.3l-1.9-3.6v6.1c0,0.2-0.1,0.3-0.2,0.5
c-0.1,0.1-0.3,0.2-0.4,0.2c-0.2,0-0.3-0.1-0.5-0.2c-0.1-0.1-0.2-0.3-0.2-0.5v-8.7c0-0.2,0.1-0.3,0.2-0.5c0.1-0.1,0.3-0.2,0.5-0.2
c0.2,0,0.4,0.1,0.6,0.3c0,0,0,0,0,0l0,0l2.5,4.9l2.5-4.9c0,0,0,0,0,0c0,0,0,0,0,0c0,0,0,0,0-0.1c0.1-0.2,0.2-0.2,0.2-0.2
S497.8,325.9,498,325.9z"></path>
                <path class="st0" d="M510,327.7c0.1,0.3,0.1,0.5,0.1,0.8v6.8c0,0.2-0.1,0.3-0.2,0.5c-0.1,0.1-0.3,0.2-0.5,0.2s-0.3-0.1-0.5-0.2
c-0.1-0.1-0.2-0.3-0.2-0.5v-4.1h-2.7v4.1c0,0.2-0.1,0.3-0.2,0.5c-0.1,0.1-0.3,0.2-0.4,0.2c-0.2,0-0.3-0.1-0.5-0.2
c-0.1-0.1-0.2-0.3-0.2-0.5v-6.8c0-0.3,0-0.5,0.1-0.8c0,0,0-0.1,0,0c0.3-0.8,0.8-1.4,1.7-1.6c0,0,0,0,0,0c0.1,0,0.1,0,0.2-0.1h0
c0,0,0,0,0,0c0.1,0,0.1,0,0.2,0l0,0c0.1,0,0.2,0,0.2,0h0c0.1,0,0.2,0,0.2,0l0.1,0c0.1,0,0.1,0,0.2,0c0,0,0,0,0,0h0
c0.1,0,0.1,0,0.2,0.1c0,0,0,0,0,0C509.1,326.3,509.7,326.8,510,327.7C510,327.7,510,327.7,510,327.7L510,327.7z M508.8,330v-1.5
c0-0.2,0-0.3-0.1-0.5l0,0c-0.1-0.1-0.1-0.2-0.2-0.3c0,0,0,0,0,0c0,0-0.1-0.1-0.1-0.1c0,0,0,0,0,0c0,0-0.1,0-0.1-0.1
s-0.1,0-0.1-0.1c0,0-0.1,0-0.1,0c0,0-0.1,0-0.1,0c0,0-0.1,0-0.1,0c0,0-0.1,0-0.2,0c0,0,0,0-0.1,0c-0.1,0-0.1,0-0.2,0h-0.1
c-0.1,0-0.1,0-0.2,0c0,0,0,0-0.1,0c-0.1,0-0.1,0-0.2,0l-0.1,0c0,0-0.1,0-0.1,0c0,0-0.1,0-0.1,0c0,0-0.1,0-0.1,0.1
c0,0-0.1,0-0.1,0.1c0,0,0,0,0,0c0,0-0.1,0.1-0.1,0.1c0,0,0,0,0,0c0,0,0,0,0,0c-0.1,0.1-0.1,0.2-0.2,0.3c0,0,0,0,0,0
c-0.1,0.2-0.1,0.3-0.1,0.5v1.5H508.8z"></path>
                <path class="st0" d="M521.7,328.6c0,0.8-0.3,1.4-0.9,1.9c0.6,0.5,0.9,1.2,0.9,1.9v2.8c0,0.2-0.1,0.3-0.2,0.5
c-0.1,0.1-0.3,0.2-0.5,0.2s-0.3-0.1-0.4-0.2c-0.1-0.1-0.2-0.3-0.2-0.5v-2.8c0-0.4-0.1-0.7-0.4-0.9c-0.3-0.3-0.6-0.4-0.9-0.4h-1.5
v4.1c0,0.2-0.1,0.3-0.2,0.5c-0.1,0.1-0.3,0.2-0.5,0.2c-0.2,0-0.3-0.1-0.5-0.2c-0.1-0.1-0.2-0.3-0.2-0.5v-8.7
c0-0.2,0.1-0.3,0.2-0.5c0.1-0.1,0.3-0.2,0.5-0.2h2.1c0.7,0,1.3,0.3,1.8,0.8S521.7,327.9,521.7,328.6L521.7,328.6z M517.6,330h1.5
c0.4,0,0.7-0.1,0.9-0.4c0.3-0.3,0.4-0.6,0.4-0.9v0c0-0.4-0.1-0.7-0.4-0.9c-0.3-0.3-0.6-0.4-0.9-0.4h-1.5V330z"></path>
                <path class="st0" d="M533,335c0.1,0.1,0.1,0.3,0.1,0.5c0,0.2-0.1,0.3-0.2,0.4c-0.1,0.1-0.3,0.1-0.5,0.1c-0.2,0-0.3-0.1-0.4-0.3
l-3-4v3.6c0,0.2-0.1,0.3-0.2,0.5c-0.1,0.1-0.3,0.2-0.4,0.2c-0.2,0-0.3-0.1-0.5-0.2c-0.1-0.1-0.2-0.3-0.2-0.5v-8.8
c0-0.2,0.1-0.3,0.2-0.5c0.1-0.1,0.3-0.2,0.5-0.2c0.2,0,0.3,0.1,0.4,0.2c0.1,0.1,0.2,0.3,0.2,0.5v3.1l3-3.6
c0.1-0.1,0.3-0.2,0.4-0.2c0.2,0,0.3,0,0.5,0.2c0.1,0.1,0.2,0.3,0.2,0.4s0,0.3-0.1,0.5l-3.1,3.7L533,335z"></path>
                <path class="st0" d="M543.2,334.7c0.2,0,0.3,0.1,0.5,0.2c0.1,0.1,0.2,0.3,0.2,0.5c0,0.2-0.1,0.3-0.2,0.5
c-0.1,0.1-0.3,0.2-0.5,0.2h-3.4c-0.2,0-0.3-0.1-0.5-0.2c-0.1-0.1-0.2-0.3-0.2-0.5v-8.5c0-0.2,0.1-0.3,0.2-0.5
c0.1-0.1,0.3-0.2,0.5-0.2h3.4c0.2,0,0.3,0.1,0.5,0.2c0.1,0.1,0.2,0.3,0.2,0.5c0,0.2-0.1,0.3-0.2,0.5c-0.1,0.1-0.3,0.2-0.5,0.2
h-2.7v2.6h2.3c0.2,0,0.3,0.1,0.5,0.2c0.1,0.1,0.2,0.3,0.2,0.5c0,0.2-0.1,0.3-0.2,0.5c-0.1,0.1-0.3,0.2-0.5,0.2h-2.3v3.3H543.2z"></path>
                <path class="st0" d="M554.7,326c0.2,0,0.3,0.1,0.5,0.2c0.1,0.1,0.2,0.3,0.2,0.5c0,0.2-0.1,0.3-0.2,0.5c-0.1,0.1-0.3,0.2-0.5,0.2
H553v8.1c0,0.2-0.1,0.3-0.2,0.5c-0.1,0.1-0.3,0.2-0.5,0.2c-0.2,0-0.3-0.1-0.5-0.2c-0.1-0.1-0.2-0.3-0.2-0.5v-8.1H550
c-0.2,0-0.3-0.1-0.5-0.2c-0.1-0.1-0.2-0.3-0.2-0.5c0-0.2,0.1-0.3,0.2-0.5c0.1-0.1,0.3-0.2,0.5-0.2H554.7z M554.7,326
c0.2,0,0.3,0.1,0.5,0.2c0.1,0.1,0.2,0.3,0.2,0.5c0,0.2-0.1,0.3-0.2,0.5c-0.1,0.1-0.3,0.2-0.5,0.2H553v8.1c0,0.2-0.1,0.3-0.2,0.5
c-0.1,0.1-0.3,0.2-0.5,0.2c-0.2,0-0.3-0.1-0.5-0.2c-0.1-0.1-0.2-0.3-0.2-0.5v-8.1H550c-0.2,0-0.3-0.1-0.5-0.2
c-0.1-0.1-0.2-0.3-0.2-0.5c0-0.2,0.1-0.3,0.2-0.5c0.1-0.1,0.3-0.2,0.5-0.2H554.7z"></path>
            </g>
        </g>
    </g>
</svg>